<svg xmlns="http://www.w3.org/2000/svg" width="167.28" height="112.26" viewBox="0 0 167.28 112.26"><g data-name="レイヤー 2"><path d="M50.67 8.18C42.37 1 32 0 21.92 0H0v111.29h16.61V65.74h8.23c26.93 0 36.52-16.85 36.52-32.63 0-5.89-1.36-16.96-10.69-24.93zm-5.91 24.28c0 11-7.5 17.32-20.57 17.32h-7.58V16h6.61c14.29 0 21.54 5.51 21.54 16.46zm110.46 9.69V15.06h-16.28v27.06h-12.13v16.15h12.13v53.02h16.28V58.27l12.06.03V42.18l-12.06-.03zM102.2 80c0 4.42 0 9.43-2.75 13-1.55 2-4.54 4.31-10 4.31s-8.48-2.34-10-4.29c-2.77-3.6-2.77-8.61-2.77-13V64.78H60.36v16.48c0 9.15 1.11 15.65 6.8 21.85 7.55 8 17.19 9.15 22.26 9.15s14.71-1.19 22.29-9.18c5.66-6.17 6.77-12.67 6.77-21.82V64.78H102.2z" fill="#7ac0ce" data-name="レイヤー 1"/></g></svg>